<svg xmlns="http://www.w3.org/2000/svg" width="128" height="128" viewBox="0 0 128 128"><defs><radialGradient id="bg"><stop stop-color="#5b2341"/><stop offset="1" stop-color="#101820"/></radialGradient><linearGradient id="gold" x2="0" y2="1"><stop stop-color="#fff1b8"/><stop offset="1" stop-color="#c39a4c"/></linearGradient></defs><circle cx="64" cy="64" r="61" fill="url(#bg)" stroke="#b79a63" stroke-width="3"/><path d="m64 10 43 24v54l-43 28-43-28V34z" fill="none" stroke="#dec28b" stroke-opacity=".45" stroke-width="2"/><g fill="url(#gold)"><path d="M65 23c7 24 27 25 28 46 1 18-12 31-29 31-19 0-31-13-29-29 1-10 7-20 17-29-2 15 1 20 6 23 7-15 9-26 7-42z"/><path d="M66 63c-2 13-13 15-13 24 0 7 6 12 12 12s12-5 12-12c0-9-8-13-11-24z" fill="#fff1c0"/></g></svg>